<?xml version="1.0" standalone="no"?>
<!DOCTYPE svg PUBLIC "-//W3C//DTD SVG 20010904//EN"
 "http://www.w3.org/TR/2001/REC-SVG-20010904/DTD/svg10.dtd">
<svg version="1.0" xmlns="http://www.w3.org/2000/svg"
 width="1024.000000pt" height="1024.000000pt" viewBox="0 0 1024.000000 1024.000000"
 preserveAspectRatio="xMidYMid meet">

<g transform="translate(0.000000,1024.000000) scale(0.100000,-0.100000)"
fill="#000000" stroke="none">
<path d="M4470 9136 c-96 -33 -133 -49 -159 -70 -8 -6 -28 -11 -45 -11 -29 0
-31 -3 -31 -35 0 -27 4 -34 17 -32 9 1 19 -2 23 -7 9 -15 -23 -71 -40 -71 -13
0 -15 -34 -15 -228 0 -168 3 -232 13 -243 11 -14 134 -106 164 -123 7 -4 58
30 125 85 124 100 300 219 416 282 l74 40 -73 22 c-41 12 -116 41 -166 63 -51
23 -135 60 -185 83 -136 59 -160 76 -148 100 6 11 21 19 35 19 13 0 26 4 29 9
3 5 22 12 42 15 19 4 62 19 95 33 l60 26 -50 28 c-27 16 -52 33 -56 39 -9 14
-19 12 -125 -24z"/>
<path d="M6115 8544 c-286 -41 -463 -96 -730 -225 -227 -109 -433 -248 -651
-435 -50 -44 -116 -101 -147 -127 l-55 -48 -101 51 c-55 29 -108 50 -118 47
-14 -3 -10 -7 15 -17 17 -6 32 -16 32 -21 0 -5 -13 -3 -30 6 -16 8 -40 15 -52
15 -13 0 -90 -34 -171 -75 -80 -41 -155 -75 -164 -75 -10 0 -54 21 -98 45 -44
25 -100 55 -124 67 l-45 21 -73 -37 c-40 -20 -79 -36 -86 -36 -6 0 -50 18 -97
40 -47 22 -89 40 -95 40 -7 0 -8 -431 -5 -1282 5 -1126 7 -1288 21 -1320 8
-21 18 -41 22 -44 4 -4 7 -15 7 -24 0 -23 38 -55 85 -71 49 -17 55 -24 55 -69
0 -19 8 -49 18 -67 53 -97 103 -165 144 -196 l47 -36 10 32 c5 18 13 49 17 70
3 21 9 36 11 33 3 -3 15 4 26 15 40 37 43 5 7 -103 -39 -124 -69 -190 -81
-182 -5 3 -6 -3 -2 -12 5 -13 3 -15 -7 -9 -9 6 -11 4 -5 -4 4 -8 -3 -24 -19
-40 -27 -28 -85 -167 -112 -266 -8 -27 -14 -81 -14 -120 0 -76 16 -122 70
-200 17 -25 28 -46 25 -46 -3 -1 -11 -2 -17 -3 -9 -1 -12 -15 -10 -41 4 -59
21 -94 53 -111 26 -13 27 -17 17 -39 -6 -14 -15 -25 -19 -25 -6 0 -20 28 -24
50 -9 45 -17 51 -59 45 -39 -6 -45 -4 -65 20 -11 15 -21 36 -21 46 0 20 -24
24 -67 13 -19 -5 -22 -11 -17 -33 12 -55 16 -60 48 -71 64 -21 105 -46 96 -60
-4 -7 -6 -20 -2 -28 3 -10 1 -13 -6 -8 -9 5 -12 -5 -12 -34 0 -32 -3 -41 -14
-37 -7 3 -19 0 -26 -6 -10 -9 -12 -8 -7 6 4 9 4 37 1 60 l-6 43 -57 12 c-31 7
-86 12 -122 11 -36 0 -77 5 -92 10 -38 15 -54 5 -52 -30 1 -16 -4 -34 -12 -40
-7 -6 -13 -20 -13 -31 0 -10 -5 -16 -10 -13 -6 4 -8 11 -5 16 4 5 0 9 -8 9
-15 0 -30 -37 -21 -52 3 -5 13 -3 22 4 13 11 15 11 10 -3 -4 -9 -1 -22 5 -28
9 -10 7 -17 -10 -31 -13 -10 -23 -23 -23 -29 0 -6 -5 -11 -11 -11 -8 0 -8 -5
1 -15 10 -12 9 -15 -5 -15 -10 0 -15 -3 -12 -7 4 -3 2 -12 -4 -19 -6 -7 -6
-14 0 -18 14 -9 2 -44 -18 -50 -9 -3 -4 -4 12 -2 16 2 27 -2 27 -9 0 -9 42
-11 173 -8 246 5 298 11 304 33 3 12 20 20 56 26 43 7 53 13 55 32 2 13 -2 22
-10 23 -25 1 -53 6 -85 13 -26 6 -33 4 -33 -7 0 -9 -7 -14 -15 -13 -19 3 -21
6 -29 38 -5 23 -3 27 21 30 19 2 29 10 33 28 6 24 23 36 87 62 17 7 30 15 27
19 -2 4 3 12 11 19 8 7 15 18 15 24 0 15 35 18 68 5 l27 -11 -25 -13 c-14 -8
-32 -14 -41 -15 -18 0 -54 -46 -41 -53 57 -32 159 1 261 85 41 34 84 80 99
106 47 81 121 146 224 196 75 37 101 45 126 40 60 -12 66 -29 70 -199 4 -140
3 -154 -14 -168 -11 -9 -42 -34 -70 -55 -28 -22 -58 -56 -67 -75 -24 -50 -23
-153 3 -194 11 -18 23 -33 27 -33 5 0 20 -11 35 -24 l26 -25 66 35 c73 39 54
39 266 -3 118 -23 375 -44 465 -38 108 7 249 28 321 46 43 11 115 29 159 39
88 19 121 36 237 119 59 42 75 58 66 68 -13 16 -6 16 26 2 38 -18 39 -36 1
-77 -40 -45 -114 -88 -170 -97 -90 -17 -124 -60 -56 -70 20 -3 50 -9 66 -14
30 -8 29 -8 -23 -24 -30 -9 -69 -19 -88 -23 -32 -6 -34 -4 -34 19 0 26 0 26
-72 22 -40 -2 -122 -10 -183 -19 -60 -9 -154 -16 -207 -16 -91 0 -97 -1 -93
-20 3 -15 -2 -20 -20 -20 -13 0 -26 6 -29 13 -5 10 -7 10 -12 0 -3 -7 -22 -13
-41 -13 -28 0 -34 -3 -29 -16 6 -15 -3 -16 -76 -11 -75 6 -268 24 -310 31 -28
4 -34 17 -15 31 16 11 15 13 -15 18 -40 6 -78 -10 -57 -24 10 -6 3 -9 -21 -10
l-35 -1 30 -10 c17 -6 31 -12 33 -13 1 -1 -11 -26 -28 -56 -16 -30 -30 -59
-30 -65 0 -14 90 -54 119 -54 14 0 21 -6 21 -20 0 -11 -5 -20 -11 -20 -5 0 -8
4 -4 9 3 5 1 12 -5 16 -5 3 -10 1 -10 -5 0 -8 -13 -10 -42 -5 -31 4 -39 3 -28
-4 24 -17 -44 -14 -87 4 -45 19 -62 8 -45 -29 8 -19 23 -27 66 -36 31 -6 56
-17 56 -23 0 -7 41 -19 106 -30 58 -9 114 -22 125 -27 26 -14 25 -56 -1 -63
-12 -3 -20 -14 -20 -27 0 -16 4 -20 19 -15 10 3 39 1 64 -5 64 -14 265 -29
530 -40 221 -9 279 -17 342 -44 17 -8 82 -21 145 -30 270 -39 258 -36 308 -77
49 -41 70 -69 52 -69 -6 0 -8 -5 -5 -10 3 -5 -1 -10 -10 -10 -12 0 -15 -8 -13
-32 3 -34 9 -37 108 -54 19 -3 53 -10 75 -16 47 -12 125 -17 125 -8 0 4 6 7
13 7 6 0 21 4 32 7 27 9 -156 -83 -225 -113 -30 -13 -111 -50 -180 -81 -187
-86 -366 -164 -447 -195 -56 -22 -76 -25 -86 -16 -12 9 -16 6 -20 -18 -4 -18
-14 -32 -28 -36 -23 -8 -72 13 -63 27 3 4 -2 8 -10 8 -12 0 -16 -10 -16 -34 0
-34 -2 -35 -60 -52 -67 -19 -89 -36 -71 -58 9 -10 7 -17 -6 -27 -11 -9 -14
-10 -9 -2 4 7 2 13 -3 13 -6 0 -11 -5 -11 -11 0 -6 -6 -9 -12 -6 -7 2 -12 10
-10 16 1 8 -2 9 -10 5 -13 -8 -56 -14 -96 -14 -12 0 -41 9 -64 21 -39 20 -42
20 -54 4 -7 -9 -17 -14 -23 -10 -7 4 -8 0 -4 -12 6 -15 5 -16 -10 -3 -15 14
-15 16 5 33 24 21 11 22 -16 2 -23 -18 -36 -19 -36 -4 0 5 5 7 10 4 6 -3 10
-3 10 2 0 16 -15 30 -32 30 -14 0 -15 -4 -7 -21 9 -19 9 -19 -4 -4 -8 10 -17
15 -21 11 -4 -4 -4 0 -1 9 7 18 -15 28 -75 35 -74 9 -108 22 -89 34 10 6 10
11 0 23 -16 19 -32 11 -24 -11 6 -15 5 -16 -9 -3 -9 8 -14 18 -12 22 5 8 -85
43 -92 35 -4 -3 9 -10 27 -16 26 -7 28 -9 12 -10 -13 -1 -31 7 -42 18 -21 21
-132 74 -139 66 -3 -3 0 -5 6 -5 7 0 12 -4 12 -9 0 -5 -9 -7 -20 -4 -11 3 -20
11 -20 17 0 7 -5 17 -12 24 -9 9 -14 8 -23 -4 -10 -15 -13 -15 -27 -1 -9 9
-27 19 -42 23 -14 3 -23 11 -19 17 3 6 1 7 -5 3 -12 -7 -106 36 -117 54 -4 6
-10 8 -14 6 -4 -3 -17 3 -27 13 -11 9 -24 16 -30 14 -6 -2 -24 8 -40 22 -16
14 -34 23 -41 20 -17 -6 -27 12 -11 19 7 3 1 3 -14 0 -18 -4 -28 -2 -28 6 0 6
-4 8 -10 5 -5 -3 -31 7 -57 22 -27 15 -54 27 -60 25 -7 -2 -13 2 -13 8 0 5 -7
10 -15 10 -8 0 -15 4 -15 9 0 4 -8 8 -17 8 -28 0 -84 24 -77 34 3 5 -2 6 -10
3 -8 -3 -48 10 -88 29 -40 19 -84 38 -98 42 -27 8 -122 55 -130 64 -3 4 -12 7
-22 9 -18 3 -118 49 -193 90 -27 15 -68 33 -89 41 -22 7 -60 26 -85 42 -25 16
-57 34 -71 40 -14 6 -67 31 -117 55 -51 24 -99 44 -107 44 -9 0 -13 6 -10 15
4 10 0 13 -14 10 -12 -2 -26 3 -33 11 -9 11 -9 14 1 14 8 0 11 3 8 6 -4 3 -16
0 -29 -6 -19 -11 -24 -10 -35 5 -7 9 -17 14 -23 10 -6 -3 -11 -1 -11 5 0 6 -4
8 -10 5 -6 -3 -10 -1 -10 4 0 6 -7 11 -15 11 -9 0 -55 20 -104 45 -49 24 -91
41 -95 38 -3 -4 -6 -2 -6 3 0 6 -16 16 -35 23 -19 7 -35 16 -35 20 0 4 -6 8
-12 8 -31 1 -158 67 -158 82 0 12 -2 13 -8 3 -7 -10 -13 -10 -34 0 -13 8 -23
18 -21 25 2 6 -1 15 -8 19 -8 4 -9 3 -5 -4 4 -7 2 -12 -3 -12 -6 0 -11 5 -11
10 0 6 -6 10 -14 10 -7 0 -19 7 -26 15 -7 8 -16 12 -22 9 -5 -3 -16 0 -24 7
-12 10 -17 10 -23 1 -5 -9 -12 -7 -25 7 -10 11 -24 17 -32 14 -8 -3 -17 2 -20
11 -3 9 -10 13 -16 10 -5 -3 -18 2 -29 12 -10 9 -22 15 -25 11 -3 -3 -49 16
-102 43 -54 27 -110 52 -127 56 -30 7 -64 21 -190 79 -38 17 -110 49 -160 70
-49 21 -94 42 -100 46 -14 13 -62 11 -68 -3 -3 -9 6 -13 27 -14 18 0 88 -28
156 -61 69 -34 159 -77 200 -96 41 -19 156 -74 255 -122 196 -95 535 -255 540
-255 6 0 310 -141 355 -164 25 -13 72 -35 105 -49 71 -30 199 -90 460 -217
105 -50 281 -132 391 -180 196 -86 266 -119 592 -276 85 -41 156 -74 158 -74
10 0 321 -144 464 -215 85 -42 192 -95 238 -117 45 -23 82 -45 82 -50 0 -4 9
-8 20 -8 11 0 29 -9 39 -19 11 -11 22 -17 25 -13 3 3 6 0 6 -6 0 -7 6 -11 13
-10 6 2 11 -3 9 -10 -1 -8 2 -11 7 -8 5 3 17 3 25 0 20 -8 49 -61 38 -68 -13
-8 -99 28 -437 184 -181 83 -422 194 -535 245 -203 92 -330 150 -840 385 -146
67 -337 155 -425 195 -160 72 -1098 506 -1400 648 -293 137 -570 263 -605 277
-19 7 -40 17 -46 22 -6 4 -14 5 -17 1 -9 -9 -7 -493 2 -517 7 -19 43 -36 496
-241 138 -62 331 -150 430 -195 99 -45 239 -108 310 -140 72 -32 209 -94 305
-138 96 -44 270 -123 385 -175 116 -52 379 -173 585 -267 206 -95 452 -207
545 -250 94 -43 204 -94 245 -115 72 -36 209 -99 740 -337 212 -95 250 -109
285 -106 48 6 219 73 413 162 142 66 520 236 772 349 80 35 264 120 410 187
146 68 346 160 445 205 99 46 326 151 505 235 179 83 384 178 455 210 72 32
194 88 270 125 141 67 236 111 749 343 153 69 284 132 292 139 11 12 14 59 13
241 -1 125 -4 240 -8 256 -5 23 -21 37 -81 70 l-75 42 -3 80 c-3 93 5 84 -144
144 -97 39 -104 48 -91 106 10 41 9 46 -13 63 -17 13 -20 21 -12 29 9 9 8 19
-2 39 -7 16 -14 40 -15 54 -1 15 -18 46 -38 70 -20 23 -37 46 -37 51 0 4 -7 8
-15 8 -9 0 -15 -9 -15 -22 0 -28 -32 -97 -45 -98 -25 -1 -40 -22 -41 -57 -1
-21 -4 -45 -7 -53 -3 -8 -7 -24 -9 -35 -3 -17 -10 -20 -45 -17 -43 2 -113 27
-113 40 0 4 9 15 20 25 17 14 19 21 9 39 -6 12 -9 41 -6 67 5 42 3 47 -34 81
-22 20 -39 45 -39 57 0 28 -17 73 -28 73 -4 0 -18 -20 -30 -45 -12 -25 -26
-45 -32 -45 -5 0 -10 -9 -10 -19 0 -13 -6 -18 -17 -17 -20 3 -31 57 -32 164
-1 47 -4 62 -15 62 -25 0 -30 -21 -28 -129 l2 -106 -44 -33 c-25 -19 -45 -37
-45 -40 1 -4 1 -17 0 -30 -1 -21 -2 -22 -35 -8 l-34 14 -5 -31 c-2 -18 0 -42
6 -55 11 -24 82 -63 127 -70 14 -2 30 -8 35 -14 7 -8 5 -9 -7 -5 -12 4 -18 1
-18 -8 0 -8 -4 -15 -8 -15 -5 0 -16 -6 -26 -13 -16 -11 -15 -15 13 -47 17 -19
35 -41 41 -47 6 -7 13 -26 16 -43 4 -16 9 -30 13 -31 60 -7 140 -30 148 -42 3
-6 1 -7 -4 -4 -6 4 -13 0 -16 -8 -4 -8 -27 -17 -56 -21 -72 -9 -83 -27 -43
-65 18 -17 32 -28 32 -25 0 2 24 -5 53 -16 28 -11 59 -20 67 -21 8 -1 18 -6
22 -11 3 -5 20 -9 37 -8 17 0 33 -3 36 -8 2 -4 31 -6 62 -4 l58 4 -40 -25
c-22 -14 -43 -25 -46 -25 -4 0 -58 -24 -120 -54 -63 -29 -131 -61 -151 -70
-21 -9 -54 -23 -73 -31 -35 -15 -35 -15 -23 4 9 15 14 17 20 8 6 -9 8 -9 8 1
0 6 -9 21 -19 31 -11 11 -17 21 -15 24 2 2 -8 3 -23 2 -38 -2 -94 16 -86 28 3
6 1 7 -6 3 -6 -4 -19 -2 -27 5 -8 6 -31 12 -52 13 -25 1 -36 5 -34 14 1 8 -3
12 -10 10 -7 -3 -19 2 -27 9 -11 12 -15 12 -22 1 -5 -7 -9 -8 -9 -3 0 6 -11
15 -25 22 -19 8 -24 8 -19 0 3 -7 -2 -3 -10 7 -9 11 -16 16 -16 12 0 -5 -7 -3
-15 4 -18 15 -2 42 20 34 7 -3 18 3 24 14 10 18 6 22 -38 37 -54 17 -62 28
-54 68 4 21 1 27 -18 32 -25 6 -57 3 -74 -6 -5 -4 -26 -9 -46 -13 -38 -7 -40
-6 -127 74 -24 22 -54 43 -68 46 -28 7 -27 3 -10 45 17 44 11 59 -25 59 -21 0
-40 12 -71 46 -47 50 -85 74 -107 66 -18 -6 -31 16 -31 58 0 19 -9 51 -19 71
-17 31 -30 81 -34 131 -2 22 -60 53 -66 35 -2 -7 -12 -17 -21 -24 -9 -7 -17
-26 -18 -43 0 -16 -8 -37 -16 -46 -9 -8 -17 -24 -17 -35 -1 -10 -2 -25 -3 -31
-1 -7 6 -37 16 -67 22 -65 22 -65 4 -58 -10 4 -16 -2 -19 -16 -4 -18 -5 -17
-6 5 0 16 -15 58 -33 95 -18 38 -33 75 -35 83 -4 26 -26 60 -40 60 -17 0 -74
-91 -68 -109 3 -7 0 -20 -6 -27 -6 -7 -8 -17 -5 -23 17 -27 -36 -17 -123 23
-118 55 -171 69 -250 64 -34 -1 -61 -2 -61 -2 0 1 33 24 74 52 181 126 364
310 484 488 42 62 212 390 212 410 0 5 9 29 20 52 11 22 20 45 20 50 0 13 42
96 51 103 5 3 -1 15 -14 27 -23 22 -25 22 -97 7 -40 -8 -175 -40 -299 -70
-295 -72 -280 -70 -258 -53 15 11 16 18 6 48 -21 62 -46 81 -102 78 l-49 -3
-51 -111 c-100 -213 -171 -311 -333 -456 -112 -100 -177 -139 -295 -180 -90
-31 -100 -32 -249 -32 -146 0 -159 1 -230 28 -100 38 -154 70 -219 130 -98 93
-171 224 -219 391 l-26 90 -5 572 c-5 438 -9 575 -18 585 -16 15 -17 53 -1 81
8 14 14 104 19 252 7 239 15 291 75 475 24 72 126 279 172 350 46 69 179 208
253 266 132 102 338 179 411 155 18 -6 52 -29 75 -50 40 -38 57 -44 46 -15 -3
9 1 14 12 14 9 0 14 -4 11 -9 -4 -5 0 -12 6 -14 8 -3 6 -6 -4 -6 -21 -1 -24
-17 -5 -24 9 -4 9 -6 -1 -6 -7 -1 -11 -5 -7 -11 3 -6 15 -6 29 0 13 5 27 6 30
3 3 -4 6 -3 6 1 0 3 -10 11 -22 16 l-23 9 23 0 c12 1 22 6 22 12 0 5 5 7 12 3
8 -5 9 -2 4 12 -4 10 -4 15 0 12 4 -4 15 -3 25 2 15 8 17 7 14 -9 -2 -14 3
-18 21 -18 13 0 24 4 24 9 0 5 5 6 10 3 6 -4 7 -11 4 -17 -4 -7 -2 -8 5 -4 15
9 73 -32 65 -46 -4 -7 -2 -8 4 -4 15 9 86 -65 120 -123 14 -26 30 -49 35 -52
5 -3 8 -8 6 -10 -1 -2 12 -33 29 -69 36 -74 62 -186 62 -263 0 -85 -27 -239
-55 -313 -45 -121 -121 -219 -228 -294 -44 -31 -77 -48 -88 -45 -10 3 -20 1
-24 -4 -3 -7 0 -8 9 -5 9 3 16 3 16 0 0 -10 -110 -62 -213 -100 -88 -33 -103
-36 -133 -26 -19 6 -34 15 -34 19 0 12 -53 35 -75 32 -26 -3 -135 -110 -135
-133 0 -10 6 -18 12 -18 7 0 73 -30 145 -66 l133 -66 0 -127 c0 -140 1 -137
-70 -157 -26 -7 -60 -32 -60 -44 0 -4 29 -15 65 -25 62 -16 66 -16 92 0 28 18
65 21 175 13 45 -3 65 -10 94 -33 20 -17 40 -31 44 -33 8 -3 13 50 35 388 13
185 19 227 32 238 24 17 35 15 29 -5 -3 -10 -6 -160 -7 -333 0 -173 -3 -350
-6 -392 -6 -76 -15 -98 -26 -58 -6 24 -20 25 -41 4 -12 -11 -13 -20 -6 -34 15
-27 13 -31 -13 -25 -15 4 -32 -1 -50 -15 -15 -12 -27 -17 -27 -11 0 14 -26 14
-67 -1 -30 -11 -32 -15 -28 -46 3 -25 1 -32 -7 -24 -6 6 -17 8 -24 5 -8 -3
-14 -1 -15 3 0 5 -2 17 -4 27 -2 9 1 15 6 11 5 -3 7 -9 4 -14 -8 -13 9 -20 25
-9 10 6 11 9 3 9 -7 0 -13 6 -13 13 0 6 -12 21 -27 31 -14 11 -23 14 -19 8 3
-6 2 -13 -3 -16 -5 -3 -11 3 -14 14 -3 11 -1 18 3 15 5 -3 14 3 20 14 7 14 7
22 -1 26 -6 5 -4 12 8 21 10 7 13 14 6 14 -6 0 -20 3 -30 6 -13 4 -15 3 -4 -4
9 -7 10 -12 2 -16 -10 -7 -31 30 -31 54 0 5 -5 12 -12 16 -6 4 -8 3 -4 -4 3
-6 1 -14 -6 -18 -8 -5 -6 -10 8 -15 17 -7 17 -8 2 -8 -11 -1 -18 -9 -18 -21 0
-11 -4 -20 -10 -20 -5 0 -7 -7 -4 -15 4 -10 2 -13 -8 -10 -10 4 -14 0 -13 -12
2 -28 14 -43 35 -43 10 0 28 -13 40 -30 21 -30 21 -30 1 -30 -13 0 -21 8 -23
22 -2 13 -11 24 -22 26 -18 4 -19 3 -3 -13 10 -9 14 -22 10 -28 -4 -6 -6 -24
-5 -39 2 -20 -2 -28 -13 -28 -10 0 -13 -5 -9 -12 5 -7 2 -9 -9 -5 -16 6 -20 0
-32 -58 -6 -34 -45 -48 -45 -17 0 14 -2 15 -10 2 -8 -12 -11 -12 -28 3 -20 19
-47 14 -56 -9 -3 -8 -13 -14 -23 -14 -14 0 -15 -2 -4 -9 11 -7 9 -10 -8 -16
-12 -3 -18 -11 -15 -17 5 -7 1 -9 -9 -5 -10 3 -17 3 -17 -1 0 -4 -16 -8 -35
-9 -20 -1 -33 3 -30 8 4 5 2 9 -3 9 -6 0 -8 9 -5 20 6 22 36 43 47 33 10 -10
7 6 -5 28 -7 15 -7 24 1 34 7 9 8 15 0 20 -5 3 -10 30 -10 59 0 58 -18 105
-38 98 -7 -2 -12 7 -12 25 0 22 -2 25 -10 13 -5 -8 -10 -25 -10 -37 0 -12 -7
-29 -16 -37 -8 -9 -11 -16 -5 -16 14 0 -7 -60 -30 -86 -26 -28 -24 -32 14 -37
24 -3 21 -4 -15 -5 -35 -2 -48 -6 -48 -17 0 -17 -34 -37 -45 -27 -5 4 -5 2 -2
-5 4 -6 4 -19 1 -28 -6 -13 -9 -14 -16 -3 -11 15 -6 -25 7 -54 5 -13 3 -18 -9
-18 -16 0 -20 -11 -16 -39 1 -10 -6 -12 -29 -8 -25 5 -29 4 -24 -10 4 -11 3
-14 -5 -9 -8 5 -12 -2 -12 -21 0 -20 3 -24 9 -14 7 10 10 10 13 1 5 -15 58
-23 58 -10 0 5 8 6 17 3 13 -5 15 -3 9 13 -5 14 -4 16 5 7 14 -14 4 -33 -17
-33 -8 0 -12 -4 -9 -10 3 -6 -1 -7 -9 -4 -9 3 -16 1 -16 -6 0 -6 -4 -8 -10 -5
-17 11 -11 -7 7 -21 16 -11 16 -13 -9 -19 -34 -9 -51 1 -43 25 4 12 -1 19 -15
23 -11 3 -20 1 -20 -5 0 -12 21 -52 31 -58 5 -3 5 -19 0 -35 -7 -24 -10 -27
-16 -13 -4 9 -13 14 -21 11 -10 -4 -11 -9 -5 -17 14 -17 -1 -36 -30 -36 -44 0
-69 -4 -69 -11 0 -11 27 -18 49 -12 15 4 21 1 21 -11 0 -10 4 -14 10 -11 6 3
7 -1 4 -9 -4 -9 -1 -16 6 -16 7 0 10 -8 7 -20 -3 -11 0 -20 5 -20 6 0 19 -9
29 -21 13 -15 31 -22 63 -23 25 -1 48 -5 53 -10 4 -5 3 -6 -4 -2 -7 4 -13 3
-13 -2 0 -5 -18 -15 -40 -22 -88 -29 -72 -56 28 -46 47 5 82 2 116 -8 l49 -15
-29 30 c-19 20 -25 32 -17 40 7 7 18 -1 36 -24 14 -19 23 -37 20 -41 -18 -18
72 -2 166 29 94 32 249 110 238 121 -2 2 -28 -4 -58 -14 -39 -14 -63 -16 -86
-10 -29 8 -55 28 -36 28 4 0 14 4 22 9 12 8 7 17 -23 47 -28 28 -36 44 -33 61
2 13 1 26 -3 28 -5 3 -11 24 -15 48 -4 23 -13 54 -21 68 -12 24 -11 28 15 47
l29 21 -6 -21 c-3 -14 1 -26 13 -34 24 -18 85 -18 86 -1 1 22 10 72 13 75 4 4
42 12 87 19 l36 5 -1 -38 c0 -22 -7 -43 -15 -48 -11 -7 -11 -10 0 -17 9 -6 10
-12 4 -16 -16 -12 -16 -65 1 -59 10 4 11 0 4 -19 -8 -20 -4 -30 25 -60 19 -19
35 -42 35 -50 0 -8 3 -15 7 -15 11 0 155 111 206 159 69 64 73 76 45 117 -13
18 -26 34 -30 34 -11 0 -30 69 -23 89 4 13 22 23 58 32 29 6 71 20 93 30 37
15 43 15 56 2 13 -13 19 -8 49 39 74 116 229 309 341 425 65 66 118 124 118
127 0 3 -7 3 -15 0 -8 -4 -15 -1 -15 4 0 6 16 15 36 21 87 24 225 150 319 290
132 199 242 477 291 736 22 113 25 466 6 565 -72 365 -257 655 -542 847 -121
82 -320 158 -490 188 -90 16 -388 29 -455 19z m53 -783 c11 -6 10 -10 -4 -15
-9 -3 -19 -4 -22 -1 -3 3 1 5 9 5 11 0 11 2 -1 10 -8 5 -10 10 -5 10 6 0 16
-4 23 -9z m-2794 -551 c-6 -6 -10 -3 -10 10 0 13 4 16 10 10 7 -7 7 -13 0 -20z
m56 6 c0 -30 -32 -66 -39 -45 -2 8 -10 -1 -17 -21 -7 -19 -13 -27 -13 -18 -2
32 19 70 34 64 8 -3 15 -1 15 3 0 5 -5 11 -12 13 -15 5 -1 28 18 28 8 0 14
-10 14 -24z m-5 -65 c3 -5 1 -12 -5 -16 -5 -3 -10 1 -10 9 0 18 6 21 15 7z
m-5 -36 c0 -2 -6 -5 -13 -8 -8 -3 -14 1 -14 8 0 7 6 11 14 8 7 -3 13 -6 13 -8z
m3161 -716 c14 -28 9 -653 -6 -668 -7 -7 -9 102 -7 321 2 226 0 334 -7 341
-14 14 -14 27 -1 27 5 0 14 -10 21 -21z m-571 -919 c0 -5 -2 -10 -4 -10 -3 0
-8 5 -11 10 -3 6 -1 10 4 10 6 0 11 -4 11 -10z m40 -24 c0 -3 -4 -8 -10 -11
-5 -3 -10 -1 -10 4 0 6 5 11 10 11 6 0 10 -2 10 -4z m-30 -67 c0 -9 -31 -21
-37 -15 -3 3 -3 9 1 14 6 10 36 12 36 1z m95 -7 c-3 -3 -11 0 -18 7 -9 10 -8
11 6 5 10 -3 15 -9 12 -12z m2 -53 c2 -16 -1 -19 -9 -11 -5 5 -7 15 -4 21 10
15 12 14 13 -10z m-573 -241 c-7 -11 -34 -10 -34 1 0 6 9 9 19 8 11 0 17 -5
15 -9z m91 -138 c-3 -5 -13 -10 -21 -10 -8 0 -12 5 -9 10 3 6 13 10 21 10 8 0
12 -4 9 -10z m-328 -92 c-3 -8 -6 -5 -6 6 -1 11 2 17 5 13 3 -3 4 -12 1 -19z
m5 -40 c-7 -7 -12 -8 -12 -2 0 14 12 26 19 19 2 -3 -1 -11 -7 -17z m180 5 c-6
-3 -10 -8 -7 -12 2 -5 -11 -16 -30 -26 -27 -15 -31 -21 -19 -29 11 -9 10 -13
-11 -22 -23 -11 -24 -10 -21 18 4 34 40 76 70 80 24 4 37 -2 18 -9z m-42 -158
c-7 -8 -18 -15 -24 -15 -6 0 -2 7 8 15 25 19 32 19 16 0z m-1410 -366 c0 -13
4 -18 13 -13 6 4 8 3 4 -1 -13 -15 -35 -14 -41 1 -3 8 -1 14 5 14 6 0 7 5 4
10 -3 6 -1 10 4 10 6 0 11 -9 11 -21z m-393 -676 c-8 -7 -37 9 -31 19 3 5 12
4 20 -3 8 -6 13 -14 11 -16z m-36 -26 c-10 -9 -11 -8 -5 6 3 10 9 15 12 12 3
-3 0 -11 -7 -18z m49 3 c-18 -12 -30 -13 -30 -2 0 4 10 9 22 9 18 2 20 0 8 -7z
m-226 -72 l21 -18 -26 0 c-14 0 -40 -7 -57 -16 -18 -8 -36 -13 -41 -10 -5 3
-11 0 -14 -8 -6 -14 49 -26 124 -26 36 0 37 -1 30 -27 -7 -26 -13 -29 -67 -34
-32 -4 -61 -4 -64 0 -3 4 -39 8 -80 10 -83 3 -83 3 -87 31 -2 15 5 20 35 25
60 11 73 16 66 27 -4 6 -22 8 -45 4 -42 -7 -49 1 -21 24 56 47 179 79 196 50
5 -8 18 -23 30 -32z m1673 -124 c5 -16 -57 -24 -85 -11 -22 10 -22 12 -5 19
26 10 86 5 90 -8z m-227 -515 c0 -4 -10 -6 -21 -4 -32 6 -34 13 -4 13 14 0 25
-4 25 -9z m97 -3 c2 -2 -17 -4 -42 -4 -25 -1 -45 3 -45 9 0 10 77 5 87 -5z
m256 7 c-13 -2 -33 -2 -45 0 -13 2 -3 4 22 4 25 0 35 -2 23 -4z m1092 -192 c3
-6 -4 -8 -16 -6 -30 6 -37 15 -11 15 11 0 23 -4 27 -9z m863 -57 c68 -14 46
-60 -44 -94 -42 -15 -67 -18 -114 -13 -33 3 -60 2 -60 -3 0 -10 -33 -25 -95
-44 -22 -7 -52 -17 -67 -22 -15 -6 -32 -7 -37 -3 -6 3 -21 8 -32 10 -12 3 -24
7 -28 11 -3 4 0 5 8 2 8 -2 24 5 37 16 12 12 36 31 53 44 35 27 38 37 16 59
-21 20 -17 23 52 39 58 13 241 12 311 -2z m-527 -147 c45 -30 84 -45 142 -53
29 -4 45 -10 39 -16 -14 -14 -285 -148 -299 -148 -7 0 -13 4 -13 9 0 5 8 7 18
5 9 -2 28 4 41 14 l24 19 -47 12 c-64 16 -176 70 -183 88 -7 19 16 62 41 75
13 7 30 7 57 -1 30 -9 45 -9 71 3 47 21 71 19 109 -7z m-146 -195 c-3 -3 -11
0 -18 7 -9 10 -8 11 6 5 10 -3 15 -9 12 -12z m-2075 -372 c0 -5 -4 -10 -10
-10 -5 0 -10 5 -10 10 0 6 5 10 10 10 6 0 10 -4 10 -10z m100 -40 c18 -12 2
-12 -25 0 -13 6 -15 9 -5 9 8 0 22 -4 30 -9z"/>
<path d="M6680 2436 c0 -2 8 -10 18 -17 15 -13 16 -12 3 4 -13 16 -21 21 -21
13z"/>
<path d="M3088 7603 c-2 -153 -1 -685 1 -1183 3 -742 6 -891 15 -825 8 55 13
334 14 890 2 705 5 874 17 970 1 11 3 29 5 40 1 13 3 15 7 6 3 -8 13 7 23 35
14 41 20 48 38 46 21 -3 22 0 22 90 0 51 3 104 7 117 5 21 3 23 -15 19 -12 -4
-20 -2 -17 2 4 7 -95 70 -110 70 -2 0 -6 -125 -7 -277z"/>
<path d="M6250 7700 c0 -5 5 -10 11 -10 5 0 7 5 4 10 -3 6 -8 10 -11 10 -2 0
-4 -4 -4 -10z"/>
<path d="M6140 7660 c-12 -8 -9 -10 13 -10 16 0 26 4 22 10 -8 12 -16 12 -35
0z"/>
<path d="M6150 7630 c0 -5 5 -10 10 -10 6 0 10 -9 10 -19 0 -11 5 -23 11 -27
8 -4 9 1 4 17 -7 23 -6 23 7 5 12 -16 15 -16 15 -2 0 8 -9 18 -19 22 -10 3
-18 10 -18 15 0 5 -4 9 -10 9 -5 0 -10 -4 -10 -10z"/>
<path d="M6251 7224 c0 -11 3 -14 6 -6 3 7 2 16 -1 19 -3 4 -6 -2 -5 -13z"/>
<path d="M6135 6760 c-4 -6 -4 -14 -1 -17 3 -4 6 0 7 8 0 8 3 6 8 -5 5 -12 10
-15 14 -9 4 6 0 16 -7 22 -10 9 -16 9 -21 1z"/>
<path d="M6110 6735 c0 -8 4 -15 10 -15 5 0 7 7 4 15 -4 8 -8 15 -10 15 -2 0
-4 -7 -4 -15z"/>
<path d="M5430 5760 c-6 -12 -9 -24 -6 -27 3 -4 1 -12 -4 -18 -6 -8 -7 -29 -1
-58 7 -38 6 -47 -6 -47 -8 0 -11 5 -8 10 3 6 1 10 -4 10 -14 0 -9 -34 9 -57
14 -16 14 -17 -2 -4 -16 12 -18 11 -18 -8 0 -12 5 -19 10 -16 6 3 10 -2 10
-13 0 -11 10 -31 21 -46 l21 -27 22 20 c13 12 25 19 28 16 12 -13 8 118 -6
147 -8 18 -17 52 -21 75 -8 53 -29 73 -45 43z"/>
<path d="M6296 5663 c-9 -10 -7 -83 3 -83 11 0 21 25 21 55 0 25 -12 39 -24
28z"/>
<path d="M6070 5625 c0 -5 5 -17 10 -25 5 -8 10 -10 10 -5 0 6 -5 17 -10 25
-5 8 -10 11 -10 5z"/>
<path d="M6079 5554 c-3 -17 -2 -40 1 -50 10 -28 16 -3 10 41 -6 40 -6 40 -11
9z"/>
<path d="M6206 5554 c-19 -19 -19 -24 -2 -46 19 -25 27 -22 20 7 -4 18 -1 27
10 31 9 3 16 10 16 15 0 14 -27 10 -44 -7z"/>
<path d="M6140 5535 c-7 -8 -7 -15 -1 -19 11 -7 41 3 41 14 0 15 -29 19 -40 5z"/>
<path d="M5873 5466 c3 -7 0 -19 -6 -25 -8 -8 -7 -11 6 -11 14 0 16 -6 11 -26
-5 -19 -4 -25 5 -20 6 4 11 18 11 31 0 21 3 23 29 15 28 -8 28 -7 18 20 -8 22
-17 27 -45 28 -25 1 -33 -2 -29 -12z"/>
<path d="M8305 5463 c-5 -12 -9 -14 -12 -5 -8 20 -26 14 -20 -8 3 -11 1 -18
-3 -15 -11 7 -40 -23 -40 -41 0 -8 -7 -14 -15 -14 -8 0 -15 -4 -15 -8 0 -5 17
-6 38 -3 27 5 37 12 36 24 -2 14 1 15 12 6 12 -9 12 -15 2 -27 -10 -13 -10
-14 0 -8 7 4 12 2 12 -8 0 -8 -9 -18 -20 -21 -11 -3 -20 -13 -20 -21 0 -8 -6
-15 -12 -16 -7 0 -17 -2 -23 -3 -5 0 -26 -12 -45 -24 -19 -13 -27 -21 -18 -18
9 3 19 0 22 -8 7 -19 -14 -31 -25 -14 -5 8 -9 9 -9 4 0 -6 5 -16 12 -23 6 -6
8 -15 4 -19 -4 -4 -10 -3 -14 3 -4 6 -17 16 -30 23 -17 9 -21 17 -16 34 4 12
11 24 15 25 19 7 8 23 -11 17 -12 -4 -28 -1 -37 7 -12 9 -15 9 -9 1 4 -7 3
-13 -3 -13 -5 0 -12 6 -14 13 -3 6 -6 2 -6 -10 -1 -12 -16 -37 -33 -56 -37
-37 -46 -60 -22 -50 14 5 15 3 5 -15 -14 -26 -14 -35 -1 -27 9 6 14 -10 13
-42 -1 -7 6 -13 13 -13 12 0 12 -4 4 -20 -6 -11 -8 -21 -5 -21 3 -1 9 -2 14
-3 5 0 13 -4 17 -8 7 -7 -10 -12 -29 -9 -5 1 -5 -4 -2 -10 4 -6 16 -9 26 -6
27 7 23 -6 -6 -20 -21 -9 -25 -9 -25 4 0 9 -6 13 -15 10 -11 -5 -13 1 -10 26
3 18 3 26 -1 20 -3 -7 -5 -15 -4 -18 0 -3 -7 -13 -16 -22 -11 -11 -13 -18 -5
-21 6 -2 9 -8 6 -13 -3 -5 -1 -18 6 -30 10 -19 9 -21 -5 -16 -8 3 -18 1 -22
-5 -4 -7 -3 -8 4 -4 7 4 12 2 12 -4 0 -6 5 -8 10 -5 6 3 10 2 10 -4 0 -6 -11
-13 -25 -17 -14 -3 -25 -10 -25 -15 0 -5 -8 -9 -17 -9 -13 0 -14 3 -6 8 12 8
7 52 -7 52 -4 0 -15 -9 -26 -21 -12 -13 -27 -19 -41 -16 -15 3 -24 -2 -28 -14
-3 -9 -13 -20 -23 -24 -15 -6 -14 -8 7 -19 20 -11 21 -14 7 -19 -10 -4 -15 -3
-11 3 3 6 -3 10 -14 10 -11 0 -23 5 -26 10 -3 6 -12 10 -18 9 -9 0 -8 -2 1 -6
6 -2 10 -9 6 -14 -3 -5 1 -9 10 -9 8 0 16 -5 18 -12 2 -6 18 -11 36 -10 18 0
32 -4 32 -10 0 -6 6 -6 15 2 8 7 15 8 15 2 0 -5 -14 -15 -30 -22 -17 -7 -33
-17 -37 -23 -3 -6 -1 -7 5 -3 8 5 12 0 12 -13 0 -22 -14 -28 -25 -11 -3 6 -15
10 -26 10 -18 0 -19 -2 -5 -15 8 -8 26 -16 40 -17 25 -2 38 -18 15 -18 -5 0
-7 -5 -4 -10 4 -7 -6 -9 -28 -6 -29 3 -36 1 -40 -16 -3 -11 -3 -17 0 -14 4 3
13 1 20 -6 11 -9 17 -9 24 3 8 12 11 11 20 -4 8 -14 14 -16 25 -6 9 7 14 8 14
1 0 -6 -5 -14 -11 -18 -8 -4 -7 -9 2 -15 11 -7 11 -9 1 -9 -14 0 -12 -31 2
-42 6 -4 18 -2 28 3 14 7 20 6 24 -6 4 -9 12 -14 18 -12 7 3 11 -6 11 -22 0
-23 5 -26 35 -29 19 -2 40 -8 46 -13 6 -5 20 -6 30 -2 18 6 18 6 0 -15 -11
-12 -14 -22 -8 -22 6 0 14 5 17 10 4 6 11 8 16 5 5 -4 9 -2 9 3 0 6 9 8 20 5
12 -3 18 -8 15 -11 -10 -11 18 -32 44 -32 18 0 40 -13 66 -40 21 -21 42 -37
47 -34 19 12 40 -70 36 -136 -5 -68 1 -111 17 -117 6 -2 10 51 9 139 0 79 1
135 4 126 4 -22 31 -23 79 -3 41 17 89 20 98 5 14 -23 68 2 143 66 38 32 61
35 147 19 23 -4 37 1 59 20 16 14 24 25 18 25 -6 0 -9 6 -6 14 3 7 -2 16 -11
19 -14 6 -13 9 2 27 10 11 32 25 49 30 18 6 34 20 37 30 3 11 12 20 20 20 18
0 12 33 -9 51 -12 10 -9 16 16 40 l30 29 -28 1 c-24 0 -25 1 -7 9 14 6 15 9 5
10 -8 0 9 11 39 23 59 24 75 45 42 54 -16 4 -19 9 -11 18 17 21 1 45 -30 45
-39 0 -45 14 -20 48 28 38 18 62 -23 55 -26 -4 -29 -3 -19 10 10 12 9 16 -5
22 -10 5 -23 7 -30 6 -8 -1 -9 7 0 35 10 33 9 38 -11 54 -11 10 -18 20 -15 24
4 3 -2 6 -12 6 -14 0 -15 3 -5 15 18 22 -12 47 -53 44 -41 -4 -57 6 -57 35 0
26 -18 46 -35 40 -7 -3 -16 -1 -20 5 -3 6 -1 11 4 11 6 0 11 4 11 8 0 13 -48
32 -63 26 -8 -3 -20 3 -28 12 -13 16 -12 17 7 12 13 -3 21 0 21 8 0 17 1 16
-31 4 -31 -12 -35 4 -6 22 29 18 25 35 -12 47 -34 11 -108 11 -108 0 0 -4 -9
-9 -20 -12 -11 -3 -18 -1 -14 4 3 5 1 9 -5 9 -5 0 -13 -5 -16 -10 -4 -6 -16
-8 -27 -4 -11 3 -23 2 -27 -2 -9 -13 -73 -34 -82 -28 -16 10 -9 31 15 50 14
10 23 21 20 26 -8 13 -21 9 -29 -9z m30 -83 c3 -5 1 -10 -4 -10 -6 0 -11 5
-11 10 0 6 2 10 4 10 3 0 8 -4 11 -10z m245 -15 c0 -13 -4 -14 -22 -4 -34 17
-34 19 -5 19 18 0 27 -5 27 -15z m-290 -69 c-14 -14 -24 0 -16 21 6 15 8 15
16 3 6 -9 5 -19 0 -24z m-220 -20 c0 -3 -4 -8 -10 -11 -5 -3 -10 -1 -10 4 0 6
5 11 10 11 6 0 10 -2 10 -4z m251 -44 c-7 -13 -6 -23 1 -30 9 -9 9 -12 0 -12
-7 0 -12 4 -12 9 0 13 -43 10 -52 -3 -4 -6 -10 -7 -14 -3 -11 10 7 26 34 30
12 2 28 9 34 15 17 17 20 15 9 -6z m-221 -12 c0 -5 -7 -10 -16 -10 -8 0 -12 5
-9 10 3 6 10 10 16 10 5 0 9 -4 9 -10z m27 -29 c0 -11 -5 -17 -9 -15 -11 7
-10 34 1 34 6 0 9 -9 8 -19z m-27 -3 c0 -11 -12 -10 -30 2 -12 7 -10 9 8 7 12
0 22 -5 22 -9z m333 -41 c-4 -7 -8 -15 -8 -19 0 -18 -15 -18 -15 0 0 14 -7 22
-17 23 -12 1 -9 4 7 8 30 9 43 4 33 -12z m-97 -34 c-2 -21 -9 -37 -15 -35 -6
1 -11 -2 -11 -8 0 -5 -7 -7 -15 -4 -20 8 -19 26 2 22 11 -2 19 7 25 30 12 43
20 41 14 -5z m38 11 c3 -8 2 -12 -4 -9 -6 3 -10 10 -10 16 0 14 7 11 14 -7z
m-257 -10 c-3 -3 -12 -4 -19 -1 -8 3 -5 6 6 6 11 1 17 -2 13 -5z m73 -16 c0
-3 -6 -8 -12 -11 -7 -2 -10 -7 -7 -11 4 -4 14 0 22 9 14 13 17 13 31 -1 20
-19 20 -25 2 -18 -8 3 -17 0 -22 -7 -4 -8 -3 -10 4 -5 8 5 12 -1 12 -15 0 -17
-3 -20 -12 -11 -13 13 -52 -3 -43 -19 4 -5 0 -9 -8 -9 -19 0 -28 -25 -14 -39
8 -8 5 -9 -10 -7 -15 3 -25 -3 -35 -22 -7 -15 -23 -28 -35 -30 -32 -4 -29 5 8
23 17 9 28 19 25 22 -3 3 -12 0 -21 -7 -10 -8 -15 -9 -15 -2 0 6 24 35 54 65
49 48 53 55 42 75 -7 13 -16 19 -21 15 -4 -4 -5 -3 -2 3 7 12 57 14 57 2z
m-74 -33 c-1 -8 -5 -17 -8 -21 -5 -4 -4 16 1 34 3 9 9 -1 7 -13z m-26 -25 c0
-5 -7 -7 -15 -4 -8 4 -15 8 -15 10 0 2 7 4 15 4 8 0 15 -4 15 -10z m-153 -195
c4 -4 3 -5 -3 -2 -7 4 -14 1 -17 -6 -5 -13 -57 -22 -57 -9 0 9 41 29 57 27 7
-1 16 -5 20 -10z m33 -185 c0 -5 -4 -10 -9 -10 -6 0 -13 5 -16 10 -3 6 1 10 9
10 9 0 16 -4 16 -10z m118 -164 c-7 -8 -15 -12 -17 -11 -5 6 10 25 20 25 5 0
4 -6 -3 -14z m317 -115 c3 -5 1 -12 -5 -16 -5 -3 -10 1 -10 9 0 18 6 21 15 7z"/>
<path d="M5430 5451 c0 -7 -4 -10 -9 -6 -5 3 -18 -6 -29 -20 -11 -13 -23 -21
-27 -17 -5 4 -5 1 -1 -5 4 -7 2 -13 -3 -13 -6 0 -11 -5 -11 -10 0 -7 6 -7 19
0 25 13 34 13 26 0 -4 -6 5 -10 20 -10 25 0 49 -34 38 -52 -2 -4 3 -5 12 -2
22 9 35 37 25 54 -5 8 -5 19 -1 25 16 20 8 45 -14 45 -11 0 -26 5 -33 12 -9 9
-12 9 -12 -1z m60 -95 c0 -2 -8 -10 -17 -17 -16 -13 -17 -12 -4 4 13 16 21 21
21 13z"/>
<path d="M3100 5419 c0 -5 5 -7 10 -4 6 3 10 8 10 11 0 2 -4 4 -10 4 -5 0 -10
-5 -10 -11z"/>
<path d="M5773 5420 c-16 -6 -23 -18 -23 -36 0 -24 3 -25 27 -19 35 9 37 10
28 32 -5 10 -7 21 -7 26 2 8 4 8 -25 -3z"/>
<path d="M5500 5390 c-9 -6 -10 -10 -3 -10 6 0 15 5 18 10 8 12 4 12 -15 0z"/>
<path d="M1746 5258 c-3 -13 -6 -47 -6 -75 0 -40 -4 -53 -15 -53 -10 0 -15
-10 -15 -27 0 -19 -3 -24 -9 -15 -7 11 -9 10 -15 -3 -3 -9 -10 -13 -16 -10
-17 11 -11 -18 9 -39 26 -29 16 -97 -17 -111 -24 -11 -22 -41 5 -60 23 -17 13
-69 -14 -73 -13 -2 -23 -9 -23 -15 0 -7 -5 -4 -11 6 -5 9 -15 17 -20 17 -6 0
-8 -4 -4 -9 3 -6 -3 -14 -12 -20 -17 -9 -17 -10 2 -16 11 -4 34 -13 52 -21 17
-8 36 -14 42 -14 13 0 14 -39 2 -58 -6 -10 -27 -13 -72 -10 -58 3 -64 1 -64
-17 0 -11 -3 -25 -7 -31 -9 -13 64 -67 93 -69 22 -2 21 -1 35 -41 18 -50 4
-63 -53 -53 -27 5 -53 16 -60 25 -7 10 -19 13 -32 9 -25 -8 -26 -18 -7 -38 18
-18 10 -57 -13 -58 -10 0 -8 -4 8 -10 22 -9 22 -11 8 -32 -10 -15 -24 -22 -45
-21 -27 1 -30 -2 -21 -18 5 -10 14 -18 18 -18 5 0 7 -10 3 -22 -4 -16 -1 -20
9 -16 8 3 24 2 37 -3 27 -10 28 -41 4 -84 -17 -30 -24 -34 -74 -43 -26 -4 -40
-22 -18 -22 6 0 10 -16 10 -35 0 -28 5 -37 30 -50 16 -8 38 -15 50 -15 11 0
39 -9 61 -20 22 -12 60 -21 84 -22 25 0 42 -4 39 -9 -3 -5 -11 -9 -17 -9 -19
0 -66 -43 -69 -64 -2 -10 3 -21 10 -23 7 -3 12 4 12 15 0 15 5 19 20 15 20 -5
28 -23 10 -23 -5 0 -10 -7 -10 -16 0 -10 -5 -14 -16 -10 -8 3 -12 2 -9 -4 3
-6 0 -10 -7 -10 -9 0 -14 -19 -15 -66 l-2 -65 27 3 c24 3 28 8 34 53 9 65 22
110 33 110 13 0 14 -48 0 -75 -7 -16 -9 -40 -4 -65 3 -22 5 -44 4 -50 -12 -40
-14 -65 -5 -65 5 0 10 7 10 15 0 9 6 12 15 9 24 -10 18 -50 -10 -68 -19 -13
-30 -14 -45 -6 -11 6 -20 15 -20 20 0 6 -4 10 -9 10 -11 0 -21 -49 -11 -55 4
-3 7 -23 6 -46 -3 -48 10 -68 44 -71 14 -2 31 -9 38 -15 7 -7 22 -13 33 -13
10 0 19 -5 19 -11 0 -5 4 -8 10 -4 5 3 17 1 27 -4 21 -11 54 -24 66 -25 4 -1
11 -5 15 -11 24 -34 143 -122 217 -160 48 -25 96 -52 108 -59 22 -14 80 -32
140 -43 57 -10 557 -10 557 0 0 5 12 7 27 4 18 -3 32 1 41 11 7 10 11 11 7 5
-9 -18 -2 -16 25 7 13 11 29 20 37 20 7 0 13 6 13 13 0 8 3 8 9 -2 8 -13 12
-13 27 0 9 8 19 13 21 12 1 -2 18 -3 36 -3 43 0 47 29 5 37 -19 4 -28 12 -28
24 0 11 -6 19 -13 19 -8 0 -22 9 -32 20 -10 11 -23 20 -29 20 -6 0 -28 16 -48
36 -21 19 -38 32 -38 28 0 -4 -7 1 -15 12 -8 10 -15 15 -15 10 0 -5 -9 -1 -19
8 -11 10 -25 15 -30 11 -6 -3 -11 -1 -11 5 0 6 -4 9 -9 5 -5 -3 -12 -1 -16 5
-4 6 -11 8 -16 5 -5 -4 -9 -2 -9 3 0 6 -11 13 -25 16 -14 4 -25 11 -25 16 0
14 17 12 23 -2 4 -9 6 -9 6 -2 1 8 12 9 35 4 19 -4 40 -4 47 1 7 4 17 5 22 2
5 -3 13 1 18 8 13 20 11 29 -6 29 -8 0 -15 4 -15 8 0 5 -34 21 -74 37 -41 16
-73 32 -70 37 3 5 0 16 -7 24 -18 22 -20 60 -3 100 l15 35 -56 55 c-30 30 -55
59 -55 63 0 5 14 14 30 21 17 7 33 16 35 20 3 5 -24 23 -60 41 -89 44 -107 62
-95 94 6 17 6 25 -1 25 -6 0 -7 4 -4 10 3 6 -1 7 -10 4 -11 -5 -14 -2 -9 12 4
14 0 12 -19 -7 -17 -20 -31 -25 -49 -22 -30 6 -45 -12 -28 -32 10 -12 10 -19
-1 -32 -11 -13 -11 -17 -1 -20 6 -3 12 -9 12 -14 0 -4 -7 -6 -15 -3 -11 4 -13
2 -9 -9 3 -8 1 -18 -5 -22 -6 -3 -11 -15 -11 -26 0 -10 -4 -19 -8 -19 -5 0
-14 -10 -19 -23 -9 -19 -6 -30 19 -62 19 -27 27 -47 24 -61 -10 -38 20 -36 55
3 23 27 30 31 25 15 -5 -13 -3 -22 3 -22 6 0 11 -9 11 -19 0 -11 6 -22 13 -24
9 -4 9 -6 -1 -6 -10 -1 -10 -5 0 -23 7 -13 19 -27 27 -32 27 -17 52 -47 46
-56 -4 -6 -2 -10 4 -10 5 0 11 5 13 12 7 19 83 -39 128 -97 14 -17 13 -18 -2
-12 -9 3 -19 1 -22 -6 -3 -8 -5 -6 -5 3 -1 10 -12 16 -33 17 -34 1 -86 9 -125
18 -58 13 -70 15 -103 21 -19 3 -51 7 -70 10 -49 7 -115 28 -182 58 -52 23
-58 29 -63 63 -14 84 -38 113 -101 126 -25 5 -33 2 -37 -11 -3 -9 -14 -30 -24
-46 -13 -21 -15 -30 -5 -33 6 -3 12 -14 11 -26 0 -12 -3 -17 -5 -11 -3 6 -20
9 -40 7 -20 -2 -42 2 -50 8 -16 13 -19 69 -4 69 5 0 7 13 4 30 -6 25 -3 31 20
40 14 5 26 15 26 23 0 21 -30 57 -43 52 -20 -8 -74 31 -88 64 -8 17 -21 31
-29 32 -19 1 44 19 92 26 31 4 36 2 35 -14 -1 -11 5 -18 15 -18 9 0 20 -4 24
-8 12 -12 44 -8 50 7 3 8 1 24 -5 35 -6 11 -7 22 -3 25 10 6 105 -17 98 -25
-5 -4 8 -5 69 0 67 5 51 43 -25 61 -28 7 -50 17 -50 22 0 6 7 7 16 4 8 -3 13
-2 10 3 -7 10 28 43 37 35 3 -3 3 3 0 15 -4 18 -1 21 23 22 16 1 33 1 38 0 5
-1 12 2 15 7 3 5 19 13 35 19 17 5 32 15 34 23 3 8 0 10 -9 6 -8 -4 -5 0 5 8
11 9 29 13 41 10 15 -4 31 2 49 19 l27 25 -25 20 c-14 10 -23 22 -19 26 3 3
-1 14 -11 25 -14 15 -14 20 -3 24 9 3 13 22 12 61 -1 45 -6 61 -27 83 -14 16
-28 40 -32 55 -3 15 -16 32 -27 39 -19 10 -20 12 -4 29 23 25 12 73 -20 90
-19 10 -22 17 -15 30 11 20 -17 60 -41 60 -12 0 -12 2 0 9 7 5 10 14 6 20 -4
7 -1 19 7 28 10 13 10 17 1 20 -7 3 -13 16 -13 29 0 14 -9 50 -19 82 -10 31
-22 72 -26 90 -4 17 -10 32 -15 32 -5 0 -12 -15 -16 -32 -4 -18 -8 -35 -9 -38
-1 -3 -5 -23 -10 -45 -4 -22 -12 -48 -17 -57 -5 -10 -5 -18 0 -18 5 0 9 -7 9
-15 0 -8 -6 -15 -12 -15 -7 0 -18 -7 -25 -15 -10 -12 -9 -16 4 -21 13 -5 15
-19 11 -82 -2 -43 -7 -95 -11 -117 -4 -22 -7 -46 -5 -52 5 -27 -41 -11 -78 28
-45 46 -44 63 5 79 49 16 51 28 10 62 -34 28 -36 32 -21 48 14 15 13 18 -9 28
-17 8 -27 25 -37 61 -7 28 -18 51 -23 51 -6 0 -4 5 6 10 24 14 13 68 -22 105
-15 17 -51 78 -79 138 -28 59 -52 107 -55 107 -2 0 -6 -10 -10 -22z m309 -748
c0 -23 -59 -20 -63 3 -3 15 2 18 30 15 21 -2 33 -8 33 -18z m455 -550 c0 -5
-5 -10 -11 -10 -5 0 -7 5 -4 10 3 6 8 10 11 10 2 0 4 -4 4 -10z m-813 -92 c-3
-8 -6 -5 -6 6 -1 11 2 17 5 13 3 -3 4 -12 1 -19z m177 -64 c22 -9 20 -41 -3
-54 -22 -11 -25 -8 -35 33 -7 28 4 34 38 21z m771 -24 c-3 -5 -12 -10 -18 -10
-7 0 -6 4 3 10 19 12 23 12 15 0z m-49 -37 c-10 -10 -19 5 -10 18 6 11 8 11
12 0 2 -7 1 -15 -2 -18z m14 -111 c0 -5 -7 -9 -15 -9 -8 0 -12 4 -9 9 3 4 9 8
15 8 5 0 9 -4 9 -8z m-777 -165 c31 -2 77 -41 77 -64 0 -8 -4 -12 -9 -9 -5 4
-11 1 -13 -6 -3 -8 -8 -7 -18 4 -12 12 -21 13 -55 3 -33 -10 -45 -10 -72 3
-18 9 -33 22 -33 29 0 7 -5 13 -10 13 -6 0 -5 8 2 21 11 17 20 19 58 15 25 -4
58 -7 73 -9z"/>
<path d="M1810 3446 c0 -2 7 -9 15 -16 9 -7 15 -8 15 -2 0 5 -7 12 -15 16 -8
3 -15 4 -15 2z"/>
<path d="M3182 5230 c-1 -16 -6 -40 -11 -53 -5 -14 -8 -37 -7 -51 3 -21 0 -26
-12 -21 -12 4 -11 1 3 -15 16 -18 17 -23 5 -30 -10 -7 -11 -10 -2 -10 6 0 12
-5 12 -11 0 -6 -9 -8 -22 -3 -13 3 -20 3 -16 -1 4 -5 3 -14 -3 -21 -9 -11 -6
-16 12 -23 l24 -9 -28 -11 c-16 -6 -33 -11 -38 -11 -5 0 -9 -10 -9 -22 0 -17
-3 -19 -9 -9 -16 26 -21 -6 -5 -38 10 -20 23 -31 37 -31 12 0 29 -5 37 -11 12
-8 11 -9 -5 -5 -39 11 -49 -7 -36 -60 7 -26 8 -50 4 -53 -4 -3 -8 -15 -7 -26
0 -11 -3 -32 -7 -48 -7 -26 -4 -30 47 -58 30 -17 52 -34 49 -39 -6 -10 85 -49
101 -43 7 2 11 12 9 21 -2 9 -4 20 -4 24 -1 4 -11 10 -22 13 -18 6 -19 9 -8
20 8 8 37 22 64 32 l50 19 -1 59 c-2 137 -30 248 -72 288 l-24 22 4 -34 c2
-21 -2 -36 -9 -38 -8 -3 -13 4 -13 17 0 12 -4 19 -9 16 -4 -3 -9 27 -10 67 -2
84 -24 190 -40 195 -6 2 -9 8 -5 13 3 5 -1 9 -8 9 -8 0 -15 -13 -16 -30z m71
-285 c-3 -9 -8 -14 -10 -11 -3 3 -2 9 2 15 9 16 15 13 8 -4z m4 -39 c0 -8 -6
-12 -15 -9 -11 5 -11 7 0 14 7 5 13 9 14 9 0 0 1 -6 1 -14z m-15 -40 c7 4 8 2
4 -5 -9 -13 -26 -5 -25 12 0 9 2 8 6 -1 2 -6 10 -9 15 -6z m-18 -112 c3 -8 2
-12 -4 -9 -6 3 -10 10 -10 16 0 14 7 11 14 -7z"/>
<path d="M7860 5202 c0 -4 5 -13 11 -19 9 -9 13 -61 10 -130 -1 -13 -7 -23
-16 -23 -13 0 -13 -3 -3 -20 7 -11 19 -22 26 -25 7 -2 11 -1 8 3 -5 9 30 43
37 36 2 -2 10 3 18 13 12 15 12 16 -2 11 -9 -4 -20 2 -27 12 -9 15 -7 23 13
42 24 23 34 58 15 58 -5 0 -14 -8 -19 -17 -10 -17 -10 -16 -11 2 0 11 -5 27
-10 35 -8 11 -9 7 -5 -15 4 -28 4 -27 -13 7 -16 35 -32 50 -32 30z m50 -92 c0
-5 -2 -10 -4 -10 -3 0 -8 5 -11 10 -3 6 -1 10 4 10 6 0 11 -4 11 -10z"/>
<path d="M1710 5167 c0 -9 4 -18 9 -21 5 -4 8 1 7 9 -3 21 -16 31 -16 12z"/>
<path d="M7824 5138 c-4 -7 -3 -8 4 -4 7 4 12 2 12 -3 0 -6 -5 -11 -12 -11 -6
0 -9 -2 -6 -5 7 -7 38 5 38 15 0 13 -29 20 -36 8z"/>
<path d="M7795 4984 l-30 -26 28 17 c16 9 32 15 37 13 4 -2 -7 -11 -26 -20
-26 -14 -36 -15 -46 -5 -7 7 -25 12 -39 12 -28 1 -32 -16 -13 -49 9 -16 14
-16 34 -6 15 8 20 8 16 1 -13 -20 9 -12 24 9 8 11 32 25 52 31 42 11 48 23 19
39 -25 13 -21 14 -56 -16z m-51 -39 c-7 -17 -20 -20 -28 -6 -7 10 3 21 20 21
8 0 11 -6 8 -15z"/>
<path d="M5220 4896 c0 -9 5 -16 10 -16 6 0 10 4 10 9 0 6 -4 13 -10 16 -5 3
-10 -1 -10 -9z"/>
<path d="M7720 4900 c-8 -5 -12 -12 -9 -15 4 -3 12 1 19 10 14 17 11 19 -10 5z"/>
<path d="M2538 4702 c-2 -62 -1 -64 8 -86 5 -14 4 -17 -6 -11 -8 5 -11 3 -8
-6 3 -8 -4 -29 -14 -47 -10 -19 -14 -31 -9 -28 5 4 7 -17 5 -51 -3 -32 -6 -73
-7 -90 -1 -18 -7 -33 -13 -33 -7 0 -14 -9 -17 -19 -3 -13 0 -18 8 -15 9 4 11
-2 8 -19 -3 -14 0 -28 6 -31 7 -4 7 -15 1 -31 -6 -17 -5 -27 6 -35 17 -15 19
-34 2 -24 -7 4 -8 3 -4 -4 4 -7 3 -19 -2 -29 -7 -11 -6 -26 1 -42 16 -36 27
-45 70 -58 35 -10 37 -10 25 5 -11 14 -10 15 7 8 11 -5 43 -9 71 -10 37 -1 62
-9 92 -29 23 -15 55 -29 72 -30 17 -2 33 -7 36 -10 9 -9 85 3 114 19 14 7 19
13 12 14 -7 0 -25 9 -40 20 -38 28 -279 130 -307 130 -12 0 -28 7 -35 15 -7 8
-8 15 -3 15 5 0 16 13 26 29 15 25 15 30 2 41 -8 7 -12 16 -9 22 3 5 14 0 24
-12 14 -17 28 -20 73 -19 47 2 62 -3 102 -29 26 -17 68 -39 94 -48 52 -20 81
-41 81 -60 0 -9 10 -12 32 -10 18 2 42 0 53 -4 25 -10 77 -1 69 11 -3 5 0 9 5
9 6 0 11 -4 11 -9 0 -4 19 -5 43 0 23 4 45 8 50 9 11 0 8 30 -3 30 -5 0 -10 6
-10 14 0 15 -47 49 -68 49 -7 0 -10 7 -7 14 3 10 -1 13 -14 8 -14 -4 -23 1
-32 17 l-12 22 -9 -23 c-4 -12 -5 -28 -2 -34 4 -7 -5 -1 -19 13 -41 42 -66 60
-82 60 -18 0 -20 -21 -3 -38 7 -7 9 -12 4 -12 -11 0 -36 27 -36 39 0 6 -7 11
-16 11 -13 0 -14 -3 -4 -14 9 -12 8 -15 -9 -13 -12 1 -21 8 -21 17 0 10 -3 11
-8 3 -4 -6 -26 -14 -49 -16 -37 -5 -41 -3 -46 20 -5 26 -5 25 77 55 l38 15
-26 28 c-14 15 -27 33 -27 39 -1 6 -3 20 -4 31 -1 11 -5 30 -9 42 -4 12 -9 31
-11 44 -5 23 -46 89 -56 89 -6 0 -49 -123 -53 -152 -1 -10 -5 -20 -8 -24 -4
-3 -4 -13 -1 -22 5 -11 3 -13 -7 -7 -10 6 -12 -1 -8 -29 4 -35 2 -37 -19 -31
-20 5 -22 2 -20 -31 1 -28 -2 -37 -15 -39 -11 -2 -18 3 -18 11 0 9 -4 12 -10
9 -5 -3 -10 3 -10 14 0 11 5 23 11 27 8 5 8 8 0 13 -7 5 -8 17 -2 39 10 35 3
69 -49 230 -38 115 -59 138 -62 64z m274 -158 c-6 -35 -19 -20 -14 17 3 18 8
26 12 19 4 -6 5 -22 2 -36z m-257 -4 c3 -6 -4 -10 -17 -10 -18 0 -20 2 -8 10
19 12 18 12 25 0z"/>
<path d="M7600 4447 c0 -9 5 -17 11 -19 7 -2 9 -13 5 -26 -5 -16 -15 -22 -37
-22 -16 0 -29 -4 -29 -9 0 -5 -3 -16 -6 -25 -5 -13 3 -16 51 -16 48 0 56 3 51
16 -3 9 -6 22 -6 30 0 9 -4 13 -9 10 -4 -3 -8 11 -7 31 1 21 -4 38 -11 40 -7
3 -13 -2 -13 -10z"/>
<path d="M7713 4351 c-9 -15 -9 -23 2 -37 19 -26 40 -5 31 30 -8 31 -17 33
-33 7z"/>
<path d="M1471 4344 c0 -11 3 -14 6 -6 3 7 2 16 -1 19 -3 4 -6 -2 -5 -13z"/>
<path d="M8931 4307 c-8 -18 -13 -40 -11 -51 1 -11 -3 -15 -9 -12 -7 5 -11 -7
-11 -34 0 -23 4 -39 8 -36 5 3 9 -1 9 -9 0 -8 -4 -12 -9 -9 -4 3 -8 -1 -8 -10
0 -50 35 -61 75 -23 l25 23 -24 93 c-13 51 -26 94 -28 96 -2 3 -10 -10 -17
-28z"/>
<path d="M3353 4128 c-5 -7 -8 -32 -7 -56 2 -28 -1 -40 -9 -35 -6 4 -8 0 -4
-10 8 -21 -9 -22 -29 -3 -18 19 -18 30 0 23 10 -4 13 -1 10 8 -7 17 -34 8 -34
-12 0 -9 -6 -13 -15 -9 -8 3 -16 1 -16 -4 -1 -6 -3 -19 -4 -30 -1 -11 -4 -22
-5 -25 -1 -3 -3 -8 -4 -12 -3 -17 -18 -33 -29 -33 -8 0 -9 3 -1 8 10 7 25 35
30 59 2 13 -34 29 -43 19 -4 -3 1 -6 10 -6 26 0 20 -26 -13 -53 -34 -29 -39
-43 -12 -32 14 5 15 4 5 -6 -18 -18 -16 -42 3 -35 8 3 12 2 9 -3 -18 -31 135
5 217 51 51 28 54 47 13 62 -26 9 -31 17 -33 51 -5 61 -11 75 -30 68 -15 -6
-15 -5 -3 10 7 9 11 17 8 17 -2 0 -9 -6 -14 -12z"/>
<path d="M3690 3575 c-8 -9 -8 -15 -2 -15 12 0 26 19 19 26 -2 2 -10 -2 -17
-11z"/>
<path d="M3770 3331 c-6 -12 -18 -21 -26 -21 -10 0 -14 -6 -10 -17 3 -10 8
-35 12 -55 6 -38 6 -38 55 -38 56 0 59 6 36 95 -15 56 -46 73 -67 36z"/>
<path d="M3523 3243 c-18 -2 -33 -9 -33 -14 0 -5 -11 -14 -25 -19 -33 -13 -36
-60 -3 -60 47 0 138 32 138 49 -1 20 -24 52 -36 49 -5 0 -24 -3 -41 -5z"/>
<path d="M3995 3210 c-10 -11 -24 -20 -31 -20 -7 0 -18 -8 -23 -17 -6 -10 -11
-14 -11 -9 0 5 -7 3 -15 -4 -18 -15 -20 -70 -2 -94 9 -12 23 -17 42 -14 29 3
30 5 27 45 -3 40 -1 43 42 68 25 15 46 30 46 33 -1 31 -51 39 -75 12z"/>
<path d="M3233 3213 c-7 -2 -13 -18 -13 -35 l0 -30 74 4 c41 2 77 6 81 9 3 4
1 18 -4 33 -10 24 -15 26 -68 25 -32 0 -64 -3 -70 -6z"/>
<path d="M4313 3182 c-6 -4 -14 -24 -18 -45 -8 -40 -9 -41 -75 -38 -33 2 -54
-4 -80 -21 -19 -13 -43 -27 -52 -31 -29 -11 -21 -27 25 -47 53 -24 115 -26
132 -3 10 13 17 14 45 5 48 -17 107 -15 107 3 0 8 -6 16 -12 19 -7 2 -13 28
-14 60 -1 45 2 56 14 56 14 0 13 3 -2 19 -22 22 -54 33 -70 23z m6 -118 c20
-14 21 -18 8 -25 -17 -10 -67 5 -67 19 0 26 27 28 59 6z"/>
<path d="M3710 3131 c0 -6 4 -12 8 -15 5 -3 9 1 9 9 0 8 -4 15 -9 15 -4 0 -8
-4 -8 -9z"/>
<path d="M3725 3090 c-11 -18 16 -40 50 -40 32 0 33 1 22 25 -13 26 -59 36
-72 15z"/>
<path d="M4848 3093 c7 -3 16 -2 19 1 4 3 -2 6 -13 5 -11 0 -14 -3 -6 -6z"/>
<path d="M2117 3079 c7 -7 15 -10 18 -7 3 3 -2 9 -12 12 -14 6 -15 5 -6 -5z"/>
<path d="M3456 3059 c-7 -16 -15 -26 -19 -22 -4 3 -7 -3 -7 -14 0 -12 -4 -23
-9 -25 -5 -1 -11 -10 -13 -18 -6 -29 -26 -42 -46 -29 -14 9 -27 9 -50 1 -26
-9 -35 -8 -47 4 -20 20 -19 23 5 17 12 -3 20 0 20 6 0 7 -5 9 -11 5 -8 -4 -9
0 -4 15 7 25 -3 27 -31 6 -10 -8 -26 -15 -36 -15 -9 0 -19 -6 -21 -12 -3 -8
-6 -6 -6 4 -1 22 -38 43 -44 25 -3 -9 -7 -9 -20 2 -23 18 -47 -2 -47 -40 0
-19 -6 -30 -20 -34 -22 -7 -26 -20 -9 -31 8 -4 7 -9 -2 -14 -10 -7 -9 -14 5
-34 9 -15 21 -24 27 -20 6 3 16 -2 24 -12 11 -15 15 -16 29 -5 11 10 16 10 16
2 0 -7 4 -9 10 -6 5 3 18 1 28 -4 14 -7 18 -18 14 -40 -3 -25 1 -33 38 -57 22
-15 47 -38 54 -52 12 -22 19 -24 104 -28 86 -4 92 -3 92 15 0 22 9 21 63 -3
47 -21 122 -32 130 -19 7 10 -118 49 -140 45 -7 -2 -13 2 -13 8 0 5 -9 10 -20
10 -31 0 -22 46 17 91 17 20 68 11 68 -12 1 -8 7 -13 14 -11 7 1 10 -2 7 -7
-11 -16 8 -20 28 -5 16 11 17 16 6 29 -10 12 -10 15 4 15 9 0 27 7 40 15 21
14 23 20 15 62 -11 55 -14 60 -33 44 -8 -7 -21 -9 -27 -5 -8 5 -11 1 -7 -12 4
-16 -1 -20 -25 -22 -22 -2 -28 1 -24 12 4 10 1 13 -9 9 -11 -4 -14 2 -13 23 1
40 -6 65 -33 120 -28 57 -54 65 -72 23z m-246 -129 c0 -5 -5 -10 -11 -10 -5 0
-7 5 -4 10 3 6 8 10 11 10 2 0 4 -4 4 -10z m-36 -24 c-6 -15 -24 -23 -24 -11
0 8 24 34 28 30 1 -1 0 -10 -4 -19z m103 -19 c0 -8 -6 -14 -14 -14 -9 0 -10 4
-2 14 6 7 12 13 14 13 1 0 2 -6 2 -13z m-70 -49 c-3 -8 -6 -5 -6 6 -1 11 2 17
5 13 3 -3 4 -12 1 -19z m48 -8 c-3 -5 -12 -10 -18 -10 -7 0 -6 4 3 10 19 12
23 12 15 0z"/>
<path d="M4973 3083 c9 -2 23 -2 30 0 6 3 -1 5 -18 5 -16 0 -22 -2 -12 -5z"/>
<path d="M2157 3059 c7 -7 15 -10 18 -7 3 3 -2 9 -12 12 -14 6 -15 5 -6 -5z"/>
<path d="M4268 2932 c-53 -32 -47 -62 11 -62 48 0 51 4 38 46 -12 38 -12 38
-49 16z"/>
<path d="M3250 2670 c-8 -5 -12 -12 -9 -15 4 -3 12 1 19 10 14 17 11 19 -10 5z"/>
<path d="M4690 2615 c31 -18 47 -19 53 -2 3 8 -9 13 -37 14 -40 2 -41 2 -16
-12z"/>
<path d="M4191 2585 c-7 -20 -19 -39 -27 -42 -8 -3 -53 3 -100 12 -63 14 -88
15 -96 7 -8 -8 -4 -14 18 -23 16 -7 37 -11 47 -10 21 3 22 -6 2 -26 -22 -22
-1 -47 27 -32 31 17 95 1 118 -29 14 -18 23 -23 26 -14 3 6 11 12 18 12 8 0
24 9 38 19 22 18 90 34 148 35 20 1 25 -4 25 -24 0 -20 -6 -26 -30 -30 -23 -4
-29 -10 -27 -25 10 -70 10 -70 -38 -67 -24 1 -49 7 -56 13 -8 6 -15 4 -24 -6
-8 -10 -22 -13 -39 -9 -89 20 -149 37 -175 49 -16 8 -33 15 -39 15 -24 0 -107
46 -107 60 0 18 -49 -65 -60 -102 -10 -32 -1 -41 56 -58 32 -10 76 -10 190 -2
104 7 152 7 161 0 9 -7 13 -7 13 1 0 6 5 11 10 11 7 0 7 -6 1 -18 -14 -26 -2
-38 46 -51 55 -15 66 -34 46 -83 -20 -49 -12 -58 82 -97 98 -41 152 -39 143 4
-5 26 -122 88 -149 80 -17 -6 -19 -9 -8 -16 11 -7 9 -9 -6 -9 -42 0 -51 84
-11 100 13 5 26 18 29 30 4 17 9 20 24 12 10 -5 88 -13 174 -17 133 -5 157 -4
162 8 6 16 -26 57 -44 57 -22 0 -79 33 -79 46 0 8 15 14 41 16 51 4 75 31 46
53 -32 23 -241 52 -252 35 -4 -6 -18 -10 -33 -10 -19 0 -23 3 -15 11 13 13 -4
62 -18 53 -5 -3 -9 8 -9 24 0 30 -32 68 -49 58 -5 -4 -12 -2 -16 4 -10 16 -27
0 -20 -19 5 -13 4 -14 -6 -3 -18 17 -34 15 -20 -2 9 -11 8 -15 -4 -20 -11 -4
-14 -2 -9 7 8 12 -17 -5 -45 -31 -18 -17 -21 -12 -23 32 -1 31 -5 37 -19 33
-10 -3 -19 -1 -21 5 -2 5 -9 -7 -17 -27z m-176 -36 c11 -17 -1 -21 -15 -4 -8
9 -8 15 -2 15 6 0 14 -5 17 -11z"/>
<path d="M3743 2573 c-7 -2 -13 -10 -13 -18 0 -7 -7 -18 -15 -25 -22 -18 -10
-28 41 -36 60 -9 73 4 47 48 -19 33 -36 42 -60 31z"/>
<path d="M5444 2489 c-78 -18 -150 -104 -123 -149 7 -13 8 -12 9 2 0 26 68 98
86 91 8 -3 26 3 40 12 21 14 24 19 13 27 -11 7 -9 9 7 5 11 -2 29 2 39 9 18
13 17 14 -6 13 -13 -1 -42 -5 -65 -10z"/>
<path d="M4929 2459 c-15 -13 -23 -29 -21 -44 2 -13 -2 -26 -7 -30 -6 -3 -11
-15 -11 -26 0 -13 -4 -18 -12 -13 -8 5 -9 2 -4 -11 4 -12 0 -22 -14 -32 -11
-8 -20 -20 -20 -26 0 -7 4 -6 10 3 7 11 10 12 10 2 0 -8 -9 -16 -20 -19 -20
-5 -25 -19 -21 -57 2 -22 -17 -48 -30 -40 -5 3 -9 -1 -9 -9 0 -8 7 -17 15 -21
8 -3 15 -1 15 4 0 12 52 -10 63 -27 21 -33 42 -41 146 -53 99 -11 178 -9 203
6 15 10 -12 44 -52 64 -22 11 -40 27 -40 34 0 8 -6 16 -12 19 -7 3 44 2 115
-1 91 -3 127 -2 127 6 0 17 -40 40 -100 58 -83 25 -166 87 -175 132 -2 12 -11
29 -19 38 -9 8 -16 20 -16 25 0 5 -6 9 -14 9 -8 0 -17 6 -20 13 -3 6 -3 -13 0
-43 6 -50 5 -53 -10 -41 -9 8 -14 21 -11 29 4 12 3 13 -10 2 -13 -11 -15 -8
-15 15 0 23 -2 26 -15 15 -17 -15 -19 -7 -5 21 14 24 9 24 -21 -2z"/>
<path d="M4227 2423 c-10 -3 -17 -12 -15 -21 3 -16 15 -18 76 -13 15 1 16 31
1 31 -5 0 -7 -4 -4 -10 3 -5 1 -10 -5 -10 -6 0 -13 7 -16 15 -6 16 -7 16 -37
8z"/>
<path d="M5993 2418 c17 -13 14 -17 -41 -51 -80 -49 -126 -65 -220 -74 -60 -5
-71 -8 -47 -14 l30 -7 -30 -2 c-24 -2 -20 -4 20 -11 93 -17 246 12 317 62 l33
23 -20 -23 c-11 -13 -36 -31 -55 -42 -19 -10 -29 -18 -22 -19 22 0 55 21 97
63 22 22 31 34 20 26 -19 -13 -19 -13 -2 7 9 11 17 24 17 28 0 7 -46 28 -90
41 -23 7 -24 6 -7 -7z"/>
<path d="M5146 2405 c-7 -8 -17 -11 -21 -7 -5 4 -4 0 1 -8 4 -8 7 -27 6 -41
-4 -30 20 -45 38 -24 6 7 13 29 17 48 6 39 -16 57 -41 32z"/>
<path d="M6079 2308 c7 -9 9 -23 5 -30 -6 -10 -4 -11 7 0 11 10 10 15 -6 30
-17 15 -18 15 -6 0z"/>
<path d="M5618 2273 c6 -2 18 -2 25 0 6 3 1 5 -13 5 -14 0 -19 -2 -12 -5z"/>
<path d="M5985 2225 c-38 -12 -86 -28 -105 -34 -33 -10 -32 -10 15 -5 53 6
151 39 160 55 4 5 5 9 3 8 -2 0 -34 -11 -73 -24z"/>
<path d="M4365 1990 c-3 -6 1 -7 9 -4 18 7 21 14 7 14 -6 0 -13 -4 -16 -10z"/>
<path d="M5221 1816 c-14 -17 -79 -26 -85 -11 -2 5 -5 3 -5 -6 -1 -9 7 -23 17
-31 49 -43 88 -45 151 -7 32 19 33 21 15 40 -10 11 -24 17 -31 15 -7 -3 -15
-1 -18 4 -9 14 -31 12 -44 -4z"/>
<path d="M4773 1804 c-3 -8 -3 -18 1 -21 3 -4 6 -1 6 5 0 6 7 9 15 6 8 -4 15
-2 15 4 0 17 -30 23 -37 6z"/>
<path d="M4825 1780 c4 -6 11 -8 16 -5 14 9 11 15 -7 15 -8 0 -12 -5 -9 -10z"/>
</g>
</svg>
